<svg xmlns="http://www.w3.org/2000/svg" width="430" height="430" style="width:100%;height:100%;transform:translate3d(0,0,0);content-visibility:visible" viewBox="0 0 430 430"><defs><clipPath id="e"><path d="M0 0h430v430H0z"/></clipPath><clipPath id="o"><path d="M0 0h430v430H0z"/></clipPath><clipPath id="m"><path d="M0 0h430v430H0z"/></clipPath><clipPath id="k"><path d="M0 0h430v430H0z"/></clipPath><clipPath id="h"><path d="M0 0h430v430H0z"/></clipPath><clipPath id="f"><path d="M0 0h430v430H0z"/></clipPath><mask id="p"><path fill="#fff" d="M-183-203h430v430h-430z"/><path d="m-81.009-209.413-54.219 30.68 193.045 337.51 54.219-30.68-193.045-337.51"/></mask><mask id="n"><path fill="#fff" d="M0 0h430v430H0z"/><path/></mask><mask id="l"><path fill="#fff" d="M0 0h430v430H0z"/><path/></mask><mask id="j" mask-type="alpha"><g filter="url(#a)"><path fill="#fff" d="M0 0h430v430H0z" opacity="0"/><use xmlns:ns1="http://www.w3.org/1999/xlink" ns1:href="#b"/></g></mask><mask id="i" mask-type="alpha"><use xmlns:ns2="http://www.w3.org/1999/xlink" ns2:href="#c"/></mask><mask id="g" mask-type="alpha"><use xmlns:ns3="http://www.w3.org/1999/xlink" ns3:href="#d"/></mask><path id="b" style="display:none"/><path id="c" style="display:none"/><path id="d" style="display:none"/><filter id="a" width="100%" height="100%" x="0%" y="0%" filterUnits="objectBoundingBox"><feComponentTransfer in="SourceGraphic"><feFuncA tableValues="1.0 0.0" type="table"/></feComponentTransfer></filter></defs><g clip-path="url(#e)"><g clip-path="url(#f)" style="display:none"><g style="display:none"><path class="primary"/><path class="primary" style="mix-blend-mode:multiply"/></g><g style="display:none"><path class="secondary"/><path class="secondary" style="mix-blend-mode:multiply"/></g><g mask="url(#g)" style="display:none"><path class="secondary"/><path class="secondary"/></g><g fill="none" style="display:none"><path class="quaternary"/><path class="quaternary"/></g><g style="display:none"><path class="primary"/><path class="tertiary"/><path class="tertiary" style="mix-blend-mode:multiply"/><path class="primary" style="mix-blend-mode:multiply"/></g></g><g clip-path="url(#h)" style="display:none"><path class="primary" style="display:none"/><g style="display:none"><path class="secondary"/><path class="secondary" style="mix-blend-mode:multiply"/></g><g mask="url(#i)" style="display:none"><path class="secondary"/><path class="secondary"/></g><g mask="url(#j)" style="display:none"><path class="primary"/><path class="primary" style="mix-blend-mode:multiply"/></g><g fill="none" style="display:none"><path class="quaternary"/><path class="quaternary"/></g><g style="display:none"><path class="primary"/><path class="tertiary"/><path class="tertiary" style="mix-blend-mode:multiply"/><path class="tertiary"/><path class="primary" style="mix-blend-mode:multiply"/></g></g><g clip-path="url(#k)" style="display:none"><path class="primary" style="display:none"/><path class="primary" style="mix-blend-mode:multiply;display:none"/><path class="secondary" style="display:none"/><g mask="url(#l)" style="mix-blend-mode:multiply;display:none"><path class="secondary"/></g><path fill="none" class="quaternary" style="display:none"/><path fill="none" class="quaternary" style="mix-blend-mode:multiply;display:none"/><path class="tertiary" style="display:none"/><path class="tertiary" style="mix-blend-mode:multiply;display:none"/><g style="display:none"><path class="primary"/><path class="primary" style="mix-blend-mode:multiply"/></g></g><g clip-path="url(#m)" style="display:none"><path class="primary" style="display:none"/><path class="primary" style="mix-blend-mode:multiply;display:none"/><path class="secondary" style="display:none"/><g mask="url(#n)" style="mix-blend-mode:multiply;display:none"><path class="secondary"/></g><path fill="none" class="quaternary" style="display:none"/><path fill="none" class="quaternary" style="mix-blend-mode:multiply;display:none"/><path class="tertiary" style="display:none"/><path class="tertiary" style="mix-blend-mode:multiply;display:none"/><g style="display:none"><path class="primary"/><path class="primary" style="mix-blend-mode:multiply"/></g></g><g clip-path="url(#o)" style="display:block"><path fill="#F9C9C0" d="m.712 4.205-11.42 103.979 55.9 51.705c29.495-19.724 88.475-59.181 88.475-59.181l-10.794-33.544-15.547-55.425c-1.636-5.822-5.585-10.401-10.575-13.024-.009-.018-.046-.028-.046-.028L.712 4.205z" class="primary" style="display:block" transform="translate(183 203)"/><g opacity=".5" style="mix-blend-mode:multiply;display:block"><path fill="#F9C9C0" d="m180.212 291.705-7.92 19.479 55.9 51.705c2.308-.889 14.225-9.931 14.225-9.931l-62.205-61.253z" class="primary" opacity="1"/></g><path fill="#4BB3FD" d="M41.125-160.12H-64.899c-12.705 0-23.088 10.393-23.088 23.088V85.097c0 12.705 10.383 23.087 23.088 23.087H41.125c12.705 0 23.087-10.382 23.087-23.087v-222.129c0-12.695-10.382-23.088-23.087-23.088z" class="secondary" style="display:block" transform="translate(183 203)"/><g mask="url(#p)" opacity=".5" style="mix-blend-mode:multiply;display:block" transform="translate(183 203)"><path fill="#4BB3FD" d="M41.125-160.12H-64.899c-12.705 0-23.088 10.393-23.088 23.088V85.097c0 12.705 10.383 23.087 23.088 23.087H41.125c12.705 0 23.087-10.382 23.087-23.087v-222.129c0-12.695-10.382-23.088-23.087-23.088z" class="secondary" opacity="1"/></g><path fill="none" stroke="#3A3347" stroke-linecap="round" stroke-linejoin="round" stroke-width="7" d="M41.125-160.12H-64.899c-12.705 0-23.088 10.393-23.088 23.088V85.097c0 12.705 10.383 23.087 23.088 23.087H41.125c12.705 0 23.087-10.382 23.087-23.087v-222.129c0-12.695-10.382-23.088-23.087-23.088z" class="quaternary" style="display:block" transform="translate(183 203)"/><path fill="none" stroke="#3A3347" stroke-linecap="round" stroke-linejoin="round" stroke-width="7" d="M7.442-133.011h-38.658" class="quaternary" style="mix-blend-mode:multiply;display:block" transform="translate(183 203)"/><path fill="#EBE6EF" d="m35.815-42.464 16.328 24.397a2.999 2.999 0 0 1-.824 4.161l-83.462 55.863a2.999 2.999 0 0 1-4.161-.825l-16.347-24.424 88.466-59.172z" class="tertiary" style="display:block" transform="translate(281.274 346.121)"/><g opacity=".5" style="mix-blend-mode:multiply;display:block"><path fill="#EBE6EF" d="m242.027 352.907 18.456 27.268c-.019-.028-11.352 7.903-11.352 7.903a2.999 2.999 0 0 1-4.161-.825l-16.659-24.924 13.716-9.422z" class="tertiary" opacity="1"/></g><g fill="#F9C9C0" style="display:block"><path d="M194.656 178.141c-4.438 2.25-10.609 9.656-10.609 16.656 0 5 .687 16.406 11.687 20.906C209.058 221.154 239 230.5 251.5 235c34.25 5.75 33.5-32.125 25.25-34.875s-48.844-18.234-59.094-21.734c-15.795-5.393-20.188-1.562-23-.25z" class="primary"/><path d="M-20.344-36.859c-4.438 2.375-10.609 9.656-10.609 16.656 0 5 .687 16.406 11.687 20.906C-5.942 6.154 24 15.5 36.5 20c0-10.75-9-21.75-17.25-24.5S5.234-9.953-5.016-13.453c-15.795-5.393-15.078-18.156-15.328-23.406z" class="primary" opacity=".5" style="mix-blend-mode:multiply" transform="translate(215 215)"/></g></g></g></svg>